<svg xmlns="http://www.w3.org/2000/svg" width="1440" height="1130" viewBox="0 0 1440 1130" role="img" aria-labelledby="title desc">
  <title id="title">Composer design atlas</title>
  <desc id="desc">An index of the implemented design foundations and representative screens, with the remaining screen groups shown as upcoming work.</desc>
  <defs>
    <marker id="arrow" markerWidth="10" markerHeight="10" refX="8" refY="5" orient="auto"><path d="M0 0 L10 5 L0 10 z" fill="#777c72"/></marker>
    <style>
      .ui { font-family: Inter, ui-sans-serif, -apple-system, BlinkMacSystemFont, "Segoe UI", sans-serif; }
      .h1 { font-size: 34px; font-weight: 600; fill: #f4f1e9; }
      .h2 { font-size: 17px; font-weight: 600; fill: #f4f1e9; }
      .body { font-size: 13px; fill: #cfd1c9; }
      .small { font-size: 11px; font-weight: 700; letter-spacing: .07em; fill: #90958b; }
      .card-title { font-size: 16px; font-weight: 600; fill: #2a2b25; }
      .card-copy { font-size: 12px; fill: #676b62; }
      .status { font-size: 10px; font-weight: 700; letter-spacing: .07em; }
    </style>
  </defs>
  <rect width="1440" height="900" fill="#171916"/>
  <g class="ui">
    <text x="52" y="54" class="small">COMPOSER · DESIGN ATLAS</text>
    <text x="52" y="94" class="h1">A songwriting system built around intent</text>
    <text x="1388" y="82" text-anchor="end" class="body">Desktop + compact mobile system</text>

    <text x="52" y="150" class="small">FOUNDATIONS</text>
    <line x1="52" y1="162" x2="1388" y2="162" stroke="#34372f"/>

    <a href="foundations/00-design-system.svg">
      <g transform="translate(52 186)">
        <rect width="408" height="142" rx="18" fill="#f4efe5"/>
        <rect width="8" height="142" rx="4" fill="#d8a45e"/>
        <text x="28" y="34" class="status" fill="#7a5d35">IMPLEMENTED · 00</text>
        <text x="28" y="66" class="card-title">Studio Notebook design system</text>
        <text x="28" y="92" class="card-copy">Surfaces, type, emotion families, musical marks,</text>
        <text x="28" y="112" class="card-copy">tracks, controls, and the core phrase block.</text>
        <text x="380" y="122" text-anchor="end" class="card-copy">Open →</text>
      </g>
    </a>
    <a href="flows/01-experience-map.svg">
      <g transform="translate(484 186)">
        <rect width="408" height="142" rx="18" fill="#f4efe5"/>
        <rect width="8" height="142" rx="4" fill="#55a3a3"/>
        <text x="28" y="34" class="status" fill="#477f80">IMPLEMENTED · 01</text>
        <text x="28" y="66" class="card-title">End-to-end experience map</text>
        <text x="28" y="92" class="card-copy">Intent, composition loop, arrangement, local save,</text>
        <text x="28" y="112" class="card-copy">and multitrack MIDI export in one product model.</text>
        <text x="380" y="122" text-anchor="end" class="card-copy">Open →</text>
      </g>
    </a>
    <g transform="translate(916 186)">
      <rect width="472" height="142" rx="18" fill="#20221e" stroke="#3a3d35" stroke-dasharray="7 7"/>
      <text x="28" y="34" class="status" fill="#90958b">UPCOMING · 02–03</text>
      <text x="28" y="66" class="h2">Application anatomy &amp; pattern benchmark</text>
      <text x="28" y="94" class="body">Persistent shell details and competitive interaction patterns.</text>
    </g>

    <text x="52" y="388" class="small">REPRESENTATIVE WORKSPACES</text>
    <line x1="52" y1="400" x2="1388" y2="400" stroke="#34372f"/>

    <a href="screens/06-story-workspace.svg">
      <g transform="translate(52 430)">
        <rect width="390" height="210" rx="20" fill="#20221e" stroke="#3a3d35"/>
        <rect x="18" y="18" width="354" height="112" rx="12" fill="#f4efe5"/>
        <rect x="36" y="38" width="164" height="8" rx="4" fill="#cfc7b8"/>
        <rect x="36" y="60" width="296" height="7" rx="3" fill="#ded6c8"/>
        <rect x="36" y="78" width="276" height="7" rx="3" fill="#ded6c8"/>
        <rect x="36" y="98" width="98" height="18" rx="9" fill="#e5dccd"/>
        <text x="20" y="158" class="status" fill="#d8a45e">IMPLEMENTED · 06</text>
        <text x="20" y="184" class="h2">Story Workspace</text>
        <text x="370" y="184" text-anchor="end" class="body">Open →</text>
      </g>
    </a>

    <path d="M450 535 H494" stroke="#777c72" stroke-width="2" marker-end="url(#arrow)"/>

    <a href="screens/12-emotional-arc-builder.svg">
      <g transform="translate(504 430)">
        <rect width="390" height="210" rx="20" fill="#20221e" stroke="#3a3d35"/>
        <g transform="translate(28 30)">
          <line x1="0" y1="96" x2="334" y2="96" stroke="#484c43"/>
          <path d="M0 78 C48 70 68 38 112 52 S182 82 224 34 S290 20 334 26" fill="none" stroke="#6687bd" stroke-width="3"/>
          <path d="M0 90 C52 84 76 64 112 58 S180 28 224 42 S284 48 334 16" fill="none" stroke="#d46f80" stroke-width="3"/>
          <path d="M0 94 C72 94 92 88 140 82 S224 70 270 46 S312 26 334 8" fill="none" stroke="#c68b50" stroke-width="3"/>
        </g>
        <text x="20" y="158" class="status" fill="#6687bd">IMPLEMENTED · 12</text>
        <text x="20" y="184" class="h2">Emotional Arc Builder</text>
        <text x="370" y="184" text-anchor="end" class="body">Open →</text>
      </g>
    </a>

    <path d="M902 535 H946" stroke="#777c72" stroke-width="2" marker-end="url(#arrow)"/>

    <a href="screens/19-phrase-workspace.svg">
      <g transform="translate(956 430)">
        <rect width="432" height="210" rx="20" fill="#20221e" stroke="#3a3d35"/>
        <rect x="18" y="18" width="396" height="112" rx="12" fill="#f4efe5"/>
        <rect x="18" y="18" width="6" height="112" rx="3" fill="#d46f80"/>
        <text x="42" y="45" font-family="Inter, sans-serif" font-size="10" font-weight="700" fill="#74786e">PHRASE 02 · ACTIVE</text>
        <text x="42" y="73" font-family="Inter, sans-serif" font-size="11" font-weight="700" fill="#76582f">Dm</text>
        <text x="180" y="73" font-family="Inter, sans-serif" font-size="11" font-weight="700" fill="#76582f">Bb</text>
        <text x="42" y="102" font-family="Georgia, serif" font-size="16" fill="#292b25">I still set the table like you might come home</text>
        <text x="20" y="158" class="status" fill="#d46f80">IMPLEMENTED · 19</text>
        <text x="20" y="184" class="h2">Phrase Workspace</text>
        <text x="410" y="184" text-anchor="end" class="body">Open →</text>
      </g>
    </a>

    <text x="52" y="704" class="small">NEXT EXPANSION</text>
    <line x1="52" y1="716" x2="1388" y2="716" stroke="#34372f"/>
    <g transform="translate(52 744)">
      <rect width="252" height="102" rx="16" fill="#20221e" stroke="#3a3d35"/>
      <text x="20" y="32" class="status" fill="#90958b">04–18</text><text x="20" y="60" class="h2">Guided path</text><text x="20" y="82" class="body">Project to first phrase</text>
    </g>
    <g transform="translate(326 744)">
      <rect width="252" height="102" rx="16" fill="#20221e" stroke="#3a3d35"/>
      <text x="20" y="32" class="status" fill="#90958b">20–26</text><text x="20" y="60" class="h2">Musical exploration</text><text x="20" y="82" class="body">Chords, tension, rhythm</text>
    </g>
    <g transform="translate(600 744)">
      <rect width="252" height="102" rx="16" fill="#20221e" stroke="#3a3d35"/>
      <text x="20" y="32" class="status" fill="#90958b">27–30</text><text x="20" y="60" class="h2">Arrangement</text><text x="20" y="82" class="body">Tracks and alternatives</text>
    </g>
    <g transform="translate(874 744)">
      <rect width="252" height="102" rx="16" fill="#20221e" stroke="#3a3d35"/>
      <text x="20" y="32" class="status" fill="#90958b">31–35</text><text x="20" y="60" class="h2">Persistence</text><text x="20" y="82" class="body">Save, export, recovery</text>
    </g>
    <g transform="translate(1148 744)">
      <rect width="240" height="102" rx="16" fill="#20221e" stroke="#3a3d35"/>
      <text x="20" y="32" class="status" fill="#90958b">FLOW BOARDS</text><text x="20" y="60" class="h2">Six complete flows</text><text x="20" y="82" class="body">Happy paths and revision</text>
    </g>

    <text x="52" y="916" class="small">COMPACT MOBILE DRAFT</text>
    <line x1="52" y1="928" x2="1388" y2="928" stroke="#34372f"/>
    <a href="flows/03-mobile-experience-map.svg">
      <g transform="translate(52 954)"><rect width="408" height="132" rx="18" fill="#20221e" stroke="#3a3d35"/><rect width="8" height="132" rx="4" fill="#55a3a3"/><text x="28" y="34" class="status" fill="#55a3a3">DRAFT · MOBILE FLOW</text><text x="28" y="64" class="h2">Compact experience map</text><text x="28" y="90" class="body">Five destinations · one pane · context sheet</text><text x="380" y="112" text-anchor="end" class="body">Open →</text></g>
    </a>
    <a href="screens/25-mobile-core-flow.svg">
      <g transform="translate(484 954)"><rect width="408" height="132" rx="18" fill="#20221e" stroke="#3a3d35"/><rect width="8" height="132" rx="4" fill="#d46f80"/><text x="28" y="34" class="status" fill="#d46f80">DRAFT · 25</text><text x="28" y="64" class="h2">Intent to first phrase</text><text x="28" y="90" class="body">Story · Emotions · Structure · Compose</text><text x="380" y="112" text-anchor="end" class="body">Open →</text></g>
    </a>
    <a href="screens/26-mobile-workbench-flow.svg">
      <g transform="translate(916 954)"><rect width="472" height="132" rx="18" fill="#20221e" stroke="#3a3d35"/><rect width="8" height="132" rx="4" fill="#d8a45e"/><text x="28" y="34" class="status" fill="#d8a45e">DRAFT · 26</text><text x="28" y="64" class="h2">Mobile workbench</text><text x="28" y="90" class="body">Arrange · Sequence · Context · Export</text><text x="444" y="112" text-anchor="end" class="body">Open →</text></g>
    </a>
  </g>
</svg>
