<svg xmlns="http://www.w3.org/2000/svg" width="1500" height="1320" viewBox="0 0 1500 1320" role="img" aria-labelledby="title desc">
  <title id="title">Adaptive sidebar concept for Composer</title>
  <desc id="desc">Adaptive songwriting navigation with expanded and contracted sidebar states. The left sidebar can contract to an icon rail that preserves navigation awareness. The contextual right sidebar can be hidden completely and restored with a chevron. The existing Compose workspace is shown unchanged for context.</desc>
  <defs>
    <filter id="shadow" x="-20%" y="-20%" width="140%" height="140%"><feDropShadow dx="0" dy="12" stdDeviation="20" flood-color="#000000" flood-opacity=".22"/></filter>
    <style>
      .ui { font-family: Inter, ui-sans-serif, -apple-system, BlinkMacSystemFont, "Segoe UI", sans-serif; }
      .board-title { font-size: 30px; font-weight: 680; fill: #f4f1e9; }
      .board-copy { font-size: 14px; fill: #aeb2a8; }
      .state { font-size: 11px; font-weight: 800; letter-spacing: .11em; fill: #dca65c; }
      .state-title { font-size: 18px; font-weight: 680; fill: #f4f1e9; }
      .brand { font-size: 17px; font-weight: 730; fill: #f4f1e9; }
      .eyebrow { font-size: 9px; font-weight: 800; letter-spacing: .11em; fill: #8f9489; }
      .nav { font-size: 13px; font-weight: 680; fill: #d6d7d0; }
      .nav-strong { font-size: 14px; font-weight: 730; fill: #f4f1e9; }
      .meta { font-size: 10px; fill: #8f9489; }
      .meta-strong { font-size: 10px; font-weight: 650; fill: #b8bbb1; }
      .workspace-title { font-size: 24px; font-weight: 650; fill: #f4f1e9; }
      .workspace-copy { font-size: 12px; fill: #b8bbb1; }
      .paper-label { font-size: 9px; font-weight: 800; letter-spacing: .08em; fill: #777b71; }
      .paper-title { font-family: Georgia, "Times New Roman", serif; font-size: 20px; fill: #292b25; }
      .paper-copy { font-family: Georgia, "Times New Roman", serif; font-size: 14px; fill: #4b4e46; }
      .note-title { font-size: 12px; font-weight: 740; fill: #f4f1e9; }
      .note-copy { font-size: 11px; fill: #aeb2a8; }
      .spec { font-size: 10px; font-weight: 700; fill: #dca65c; }
      .tiny { font-size: 8px; fill: #8f9489; }
      .mini-paper { font-family: Georgia, "Times New Roman", serif; font-size: 13px; fill: #292b25; }
    </style>
  </defs>

  <rect width="1500" height="1320" fill="#171916"/>
  <g class="ui">
    <text x="48" y="48" class="state">SIDEBAR IA CONCEPT · 24</text>
    <text x="48" y="84" class="board-title">Setup when it matters. The workbench when you are writing.</text>
    <text x="48" y="110" class="board-copy">The rail changes emphasis after the song foundation is complete—without hiding it or breaking the original order.</text>

    <!-- Everyday state -->
    <g transform="translate(48 148)">
      <text x="0" y="0" class="state">DEFAULT AFTER SETUP</text>
      <text x="0" y="27" class="state-title">Everyday writing state</text>
      <text x="814" y="27" text-anchor="end" class="board-copy">Compose is active</text>

      <g transform="translate(0 48)" filter="url(#shadow)">
        <rect width="832" height="742" rx="20" fill="#20221e"/>

        <!-- Project bar -->
        <rect width="832" height="56" rx="20" fill="#242620"/>
        <rect y="36" width="832" height="20" fill="#242620"/>
        <circle cx="22" cy="28" r="8" fill="#dca65c"/>
        <text x="38" y="34" class="brand">Composer</text>
        <line x1="142" y1="15" x2="142" y2="41" stroke="#3b3e36"/>
        <text x="158" y="24" class="eyebrow">PROJECT</text><text x="158" y="40" class="meta-strong">The Doorway</text>
        <circle cx="760" cy="28" r="4" fill="#79936a"/><text x="771" y="32" class="meta">Saved</text>

        <!-- Adaptive rail -->
        <rect y="56" width="232" height="636" fill="#1b1d19"/>
        <text x="18" y="84" class="eyebrow">SONG</text>

        <!-- Collapsed setup summary -->
        <g transform="translate(12 98)">
          <rect width="208" height="66" rx="12" fill="#242620" stroke="#3b3e36"/>
          <circle cx="22" cy="23" r="8" fill="#30402f"/><path d="M18.5 23l2.5 2.5 5-6" fill="none" stroke="#a8c096" stroke-width="1.5" stroke-linecap="round" stroke-linejoin="round"/>
          <text x="42" y="21" class="nav">Song setup</text>
          <text x="42" y="39" class="meta">Story · Frame · Emotions</text>
          <text x="42" y="54" class="meta-strong">3 of 3 ready</text>
          <path d="M187 26l5 5 5-5" fill="none" stroke="#8f9489" stroke-width="1.6" stroke-linecap="round" stroke-linejoin="round"/>
        </g>

        <!-- Song map, intentionally quieter -->
        <text x="18" y="192" class="eyebrow">SONG MAP</text>
        <g transform="translate(12 204)">
          <rect width="208" height="48" rx="10" fill="#1f211d"/>
          <g transform="translate(17 15)" fill="none" stroke="#9ca096" stroke-width="1.25">
            <rect width="16" height="5" rx="1.5"/><rect y="10" width="10" height="5" rx="1.5"/><path d="M19 2.5h6M13 12.5h12"/>
          </g>
          <text x="46" y="21" class="nav">Structure</text><text x="46" y="37" class="meta">8 sections · 48 bars</text>
        </g>

        <!-- Primary workbench destinations -->
        <text x="18" y="280" class="eyebrow">WORKBENCH</text>
        <g transform="translate(12 292)">
          <rect width="208" height="62" rx="12" fill="#4b4332" stroke="#dca65c"/>
          <g transform="translate(17 19) scale(.72)" fill="none" stroke="#f0c886" stroke-width="1.8" stroke-linecap="round" stroke-linejoin="round"><path d="M3 25l4-1 17-17-3-3L4 21z"/><path d="M17 8l3 3"/><path d="M2 29h28"/></g>
          <text x="46" y="25" class="nav-strong">Compose</text><text x="46" y="44" class="meta-strong">Lyrics · chords · phrases</text>
          <rect x="194" y="13" width="3" height="36" rx="1.5" fill="#dca65c"/>
        </g>
        <g transform="translate(12 362)">
          <rect width="208" height="62" rx="12" fill="#242620"/>
          <g transform="translate(17 20) scale(.72)" fill="none" stroke="#9ca096" stroke-width="1.65"><path d="M0 5h30M0 15h30M0 25h30"/><rect x="4" y="1" width="8" height="8" rx="2" fill="#9ca096" stroke="none"/><rect x="18" y="11" width="9" height="8" rx="2" fill="#9ca096" stroke="none"/><rect x="9" y="21" width="13" height="8" rx="2" fill="#9ca096" stroke="none"/></g>
          <text x="46" y="25" class="nav-strong">Arrange</text><text x="46" y="44" class="meta">Tracks · sequences · dynamics</text>
        </g>

        <!-- Outcome is not another numbered phase -->
        <line x1="18" y1="454" x2="214" y2="454" stroke="#34372f"/>
        <g transform="translate(12 470)">
          <rect width="208" height="46" rx="10" fill="#1f211d"/>
          <path d="M18 15v10M14 22l4 4 4-4M12 30h12" fill="none" stroke="#9ca096" stroke-width="1.35" stroke-linecap="round" stroke-linejoin="round"/>
          <text x="46" y="27" class="nav">Export</text><text x="190" y="27" text-anchor="end" class="meta">MIDI</text>
        </g>

        <!-- Compact creative compass -->
        <g transform="translate(12 548)">
          <rect width="208" height="70" rx="12" fill="#20221e" stroke="#34372f"/>
          <text x="12" y="19" class="eyebrow">CREATIVE COMPASS</text>
          <circle cx="18" cy="40" r="5" fill="#6687bd"/><text x="30" y="44" class="meta-strong">Sadness → quiet hope</text>
          <text x="12" y="59" class="meta">Available everywhere · edit in Setup</text>
        </g>

        <!-- Workspace intentionally abstracted: it is outside this proposal -->
        <rect x="232" y="56" width="600" height="686" fill="#292b26"/>
        <g transform="translate(308 300)">
          <rect width="448" height="148" rx="18" fill="#252722" stroke="#4a4f44" stroke-dasharray="6 6"/>
          <text x="224" y="62" text-anchor="middle" class="eyebrow">OUTSIDE THIS PROPOSAL</text>
          <text x="224" y="91" text-anchor="middle" class="state-title">Existing Compose workspace</text>
          <text x="224" y="116" text-anchor="middle" class="workspace-copy">No workspace or phrase-block changes</text>
        </g>
      </g>
    </g>

    <!-- Revisited setup state -->
    <g transform="translate(928 148)">
      <text x="0" y="0" class="state">ON DEMAND / FIRST-RUN DEFAULT</text>
      <text x="0" y="27" class="state-title">Song setup expanded</text>
      <text x="522" y="27" text-anchor="end" class="board-copy">Original sequence retained</text>

      <g transform="translate(0 48)" filter="url(#shadow)">
        <rect width="524" height="742" rx="20" fill="#20221e"/>
        <rect width="524" height="56" rx="20" fill="#242620"/><rect y="36" width="524" height="20" fill="#242620"/>
        <circle cx="22" cy="28" r="8" fill="#dca65c"/><text x="38" y="34" class="brand">Composer</text>
        <rect y="56" width="288" height="636" fill="#1b1d19"/>

        <text x="18" y="84" class="eyebrow">SONG</text>
        <g transform="translate(12 98)">
          <rect width="264" height="280" rx="12" fill="#242620" stroke="#4a4f44"/>
          <circle cx="22" cy="23" r="10" fill="#30402f"/><path d="M17.5 23l3 3 6-7" fill="none" stroke="#a8c096" stroke-width="1.8" stroke-linecap="round" stroke-linejoin="round"/>
          <text x="42" y="21" class="nav">Song setup</text><text x="42" y="39" class="meta-strong">3 of 3 ready</text>
          <path d="M241 31l5-5 5 5" fill="none" stroke="#8f9489" stroke-width="1.6" stroke-linecap="round" stroke-linejoin="round"/>
          <line x1="12" y1="56" x2="252" y2="56" stroke="#3b3e36"/>

          <g transform="translate(12 70)">
            <circle cx="15" cy="17" r="12" fill="#dca65c"/><text x="15" y="21" text-anchor="middle" font-size="10" font-weight="800" fill="#211a10">1</text>
            <text x="38" y="14" class="nav">Story</text><text x="38" y="31" class="meta">Waiting becomes letting go</text>
            <path d="M220 14l3 3 6-7" fill="none" stroke="#a8c096" stroke-width="1.6" stroke-linecap="round" stroke-linejoin="round"/>
          </g>
          <g transform="translate(12 126)">
            <circle cx="15" cy="17" r="12" fill="#34372f"/><text x="15" y="21" text-anchor="middle" font-size="10" font-weight="800" fill="#d6d7d0">2</text>
            <text x="38" y="14" class="nav">Frame</text><text x="38" y="31" class="meta">D minor · 92 BPM · 4/4</text>
            <path d="M220 14l3 3 6-7" fill="none" stroke="#a8c096" stroke-width="1.6" stroke-linecap="round" stroke-linejoin="round"/>
          </g>
          <g transform="translate(12 182)">
            <circle cx="15" cy="17" r="12" fill="#34372f"/><text x="15" y="21" text-anchor="middle" font-size="10" font-weight="800" fill="#d6d7d0">3</text>
            <text x="38" y="14" class="nav">Emotions</text><text x="38" y="31" class="meta">Sadness → quiet hope</text>
            <path d="M220 14l3 3 6-7" fill="none" stroke="#a8c096" stroke-width="1.6" stroke-linecap="round" stroke-linejoin="round"/>
          </g>
          <rect x="12" y="238" width="240" height="30" rx="8" fill="#2b2e28"/><text x="132" y="258" text-anchor="middle" class="meta-strong">Review setup</text>
        </g>

        <text x="18" y="406" class="eyebrow">SONG MAP</text>
        <g transform="translate(12 418)"><rect width="264" height="46" rx="10" fill="#1f211d"/><text x="16" y="20" class="nav">Structure</text><text x="16" y="36" class="meta">8 sections · 48 bars</text></g>
        <text x="18" y="492" class="eyebrow">WORKBENCH</text>
        <g transform="translate(12 504)"><rect width="264" height="50" rx="10" fill="#1f211d"/><text x="16" y="22" class="nav-strong">Compose</text><text x="16" y="39" class="meta">Lyrics · chords · phrases</text></g>
        <g transform="translate(12 562)"><rect width="264" height="50" rx="10" fill="#1f211d"/><text x="16" y="22" class="nav-strong">Arrange</text><text x="16" y="39" class="meta">Tracks · sequences · dynamics</text></g>
        <g transform="translate(12 624)"><text x="16" y="20" class="nav">Export</text></g>

        <!-- Annotation area -->
        <rect x="288" y="56" width="236" height="636" fill="#292b26"/>
        <g transform="translate(310 88)">
          <text x="0" y="0" class="eyebrow">BEHAVIOR</text>
          <g transform="translate(0 24)">
            <circle cx="8" cy="8" r="8" fill="#4b4332"/><text x="8" y="12" text-anchor="middle" class="spec">1</text>
            <text x="26" y="10" class="note-title">Open for new songs</text>
            <text x="26" y="30" class="note-copy">Numbers teach the intended</text><text x="26" y="46" class="note-copy">setup order at the right time.</text>
          </g>
          <g transform="translate(0 104)">
            <circle cx="8" cy="8" r="8" fill="#4b4332"/><text x="8" y="12" text-anchor="middle" class="spec">2</text>
            <text x="26" y="10" class="note-title">Collapse when ready</text>
            <text x="26" y="30" class="note-copy">After all three have content,</text><text x="26" y="46" class="note-copy">collapse once the user leaves.</text>
          </g>
          <g transform="translate(0 184)">
            <circle cx="8" cy="8" r="8" fill="#4b4332"/><text x="8" y="12" text-anchor="middle" class="spec">3</text>
            <text x="26" y="10" class="note-title">Remember the choice</text>
            <text x="26" y="30" class="note-copy">If the songwriter reopens it,</text><text x="26" y="46" class="note-copy">keep it open for the session.</text>
          </g>
          <line x1="0" y1="264" x2="192" y2="264" stroke="#45483f"/>
          <text x="0" y="294" class="eyebrow">ACCESSIBILITY</text>
          <text x="0" y="324" class="note-copy">Use a real button with</text><text x="0" y="340" class="note-copy">aria-expanded + aria-controls.</text>
          <text x="0" y="372" class="note-copy">Keep setup summaries visible so</text><text x="0" y="388" class="note-copy">collapsed does not mean forgotten.</text>
          <text x="0" y="420" class="note-copy">Active destination and keyboard</text><text x="0" y="436" class="note-copy">focus need distinct treatments.</text>
          <g transform="translate(0 478)">
            <rect width="192" height="88" rx="12" fill="#20221e" stroke="#3b3e36"/>
            <text x="14" y="22" class="eyebrow">KEY RULE</text>
            <text x="14" y="45" class="note-title">Setup is summarized,</text>
            <text x="14" y="64" class="note-title">never removed.</text>
          </g>
        </g>

        <rect y="692" width="524" height="50" rx="0 0 20 20" fill="#242620"/>
        <text x="18" y="722" class="meta">Setup edits update the Creative Compass everywhere</text>
      </g>
    </g>

    <!-- Sidebar contraction behavior -->
    <g transform="translate(48 970)">
      <text x="0" y="0" class="state">SIDEBAR CONTROLS</text>
      <text x="0" y="27" class="state-title">Two independent density controls</text>
      <text x="1404" y="27" text-anchor="end" class="board-copy">Navigation remains visible; contextual help may leave entirely.</text>

      <!-- Both sidebars expanded -->
      <g transform="translate(0 48)">
        <rect width="660" height="214" rx="16" fill="#20221e" stroke="#34372f"/>
        <rect width="660" height="40" rx="16" fill="#242620"/><rect y="24" width="660" height="16" fill="#242620"/>
        <circle cx="18" cy="20" r="6" fill="#dca65c"/><text x="32" y="25" class="meta-strong">Expanded</text>

        <!-- Expanded left navigation -->
        <rect y="40" width="158" height="174" fill="#1b1d19"/>
        <text x="12" y="58" class="eyebrow">SONG</text>
        <g transform="translate(10 68)"><rect width="138" height="30" rx="7" fill="#242620"/><circle cx="14" cy="15" r="5" fill="#30402f"/><path d="M12 15l2 2 3-4" fill="none" stroke="#a8c096" stroke-width="1.1"/><text x="28" y="18" class="meta-strong">Song setup</text></g>
        <g transform="translate(10 103)"><rect width="138" height="26" rx="7" fill="#1f211d"/><path d="M10 9h11M10 16h8" stroke="#9ca096" stroke-width="1.2"/><text x="28" y="17" class="meta-strong">Structure</text></g>
        <g transform="translate(10 134)"><rect width="138" height="30" rx="7" fill="#4b4332" stroke="#dca65c"/><path d="M10 20l3-.5 9-9-2-2-9 9z" fill="none" stroke="#f0c886" stroke-width="1.2"/><text x="28" y="19" class="meta-strong" fill="#f4f1e9">Compose</text></g>
        <g transform="translate(10 169)"><rect width="138" height="26" rx="7" fill="#1f211d"/><path d="M10 8h13M10 14h13M10 20h13" stroke="#9ca096"/><text x="28" y="17" class="meta-strong">Arrange</text></g>

        <!-- Existing workspace placeholder -->
        <rect x="158" y="40" width="344" height="174" fill="#292b26"/>
        <text x="182" y="72" class="eyebrow">EXISTING WORKSPACE · UNCHANGED</text>
        <rect x="182" y="88" width="296" height="96" rx="11" fill="#252722" stroke="#45483f" stroke-dasharray="5 5"/>
        <text x="330" y="132" text-anchor="middle" class="note-title">Existing workspace</text>
        <text x="330" y="152" text-anchor="middle" class="meta">Unchanged and outside this proposal</text>

        <!-- Expanded right inspector -->
        <rect x="502" y="40" width="158" height="174" fill="#20221e" stroke="#34372f"/>
        <text x="518" y="66" class="eyebrow">ACTIVE PHRASE</text><text x="518" y="88" class="note-title">Phrase 02</text>
        <line x1="518" y1="102" x2="644" y2="102" stroke="#34372f"/>
        <text x="518" y="124" class="meta">Harmonic movement</text><text x="518" y="144" class="meta-strong">Dm → Bb → A7</text>
        <text x="518" y="172" class="meta">Suggestions and settings</text>

        <!-- Independent collapse controls -->
        <g transform="translate(148 54)"><rect width="20" height="32" rx="10" fill="#34372f" stroke="#555a50"/><path d="M12 10l-5 6 5 6" fill="none" stroke="#d6d7d0" stroke-width="1.5" stroke-linecap="round" stroke-linejoin="round"/></g>
        <g transform="translate(492 54)"><rect width="20" height="32" rx="10" fill="#34372f" stroke="#555a50"/><path d="M8 10l5 6-5 6" fill="none" stroke="#d6d7d0" stroke-width="1.5" stroke-linecap="round" stroke-linejoin="round"/></g>
        <text x="158" y="206" text-anchor="middle" class="tiny" fill="#8f9489">Contract navigation</text>
        <text x="502" y="206" text-anchor="middle" class="tiny" fill="#8f9489">Hide inspector</text>
      </g>

      <!-- Contracted left / hidden right -->
      <g transform="translate(690 48)">
        <rect width="714" height="214" rx="16" fill="#20221e" stroke="#34372f"/>
        <rect width="714" height="40" rx="16" fill="#242620"/><rect y="24" width="714" height="16" fill="#242620"/>
        <circle cx="18" cy="20" r="6" fill="#dca65c"/><text x="32" y="25" class="meta-strong">Focus state</text>

        <!-- Persistent icon rail -->
        <rect y="40" width="54" height="174" fill="#1b1d19"/>
        <g aria-label="Song setup" transform="translate(12 53)"><title>Song setup</title><circle cx="15" cy="15" r="8" fill="#30402f"/><path d="M11.5 15l2.5 2.5 5-6" fill="none" stroke="#a8c096" stroke-width="1.4" stroke-linecap="round" stroke-linejoin="round"/></g>
        <g aria-label="Structure" transform="translate(12 88)"><title>Structure</title><rect x="6" y="7" width="18" height="5" rx="1.5" fill="none" stroke="#9ca096"/><rect x="6" y="17" width="12" height="5" rx="1.5" fill="none" stroke="#9ca096"/></g>
        <g aria-label="Compose, active" transform="translate(7 120)"><title>Compose, active</title><rect width="40" height="34" rx="8" fill="#4b4332" stroke="#dca65c"/><path d="M12 24l3-.5 10-10-2.5-2.5-10 10z" fill="none" stroke="#f0c886" stroke-width="1.35"/></g>
        <g aria-label="Arrange" transform="translate(12 159)"><title>Arrange</title><path d="M6 7h18M6 14h18M6 21h18" stroke="#9ca096" stroke-width="1.2"/><rect x="10" y="4" width="5" height="6" rx="1" fill="#9ca096"/><rect x="18" y="11" width="5" height="6" rx="1" fill="#9ca096"/></g>
        <g aria-label="Export" transform="translate(12 190)"><title>Export</title><path d="M15 4v11M11 12l4 4 4-4M9 21h12" fill="none" stroke="#9ca096" stroke-width="1.2" stroke-linecap="round" stroke-linejoin="round"/></g>

        <!-- Workspace gains both released areas -->
        <rect x="54" y="40" width="660" height="174" fill="#292b26"/>
        <text x="82" y="72" class="eyebrow">EXISTING WORKSPACE · MORE ROOM</text>
        <rect x="82" y="88" width="594" height="96" rx="11" fill="#252722" stroke="#45483f" stroke-dasharray="5 5"/>
        <text x="379" y="132" text-anchor="middle" class="note-title">Existing workspace gains the released width</text>
        <text x="379" y="152" text-anchor="middle" class="meta">Its internal design remains unchanged</text>

        <!-- Restore controls -->
        <g transform="translate(44 54)"><rect width="20" height="32" rx="10" fill="#34372f" stroke="#555a50"/><path d="M8 10l5 6-5 6" fill="none" stroke="#d6d7d0" stroke-width="1.5" stroke-linecap="round" stroke-linejoin="round"/></g>
        <g transform="translate(692 96)"><rect width="22" height="44" rx="10 0 0 10" fill="#34372f" stroke="#555a50"/><path d="M14 13l-6 9 6 9" fill="none" stroke="#d6d7d0" stroke-width="1.5" stroke-linecap="round" stroke-linejoin="round"/></g>
        <text x="72" y="206" class="tiny" fill="#8f9489">Expand navigation</text>
        <text x="680" y="206" text-anchor="end" class="tiny" fill="#8f9489">Show inspector</text>
      </g>
    </g>

    <!-- Bottom rationale strip -->
    <g transform="translate(48 1266)">
      <line x1="0" y1="0" x2="1404" y2="0" stroke="#34372f"/>
      <text x="0" y="28" class="eyebrow">LEFT RAIL</text><text x="76" y="28" class="note-copy">Contracts to icons so location and switching remain available.</text>
      <text x="514" y="28" class="eyebrow">RIGHT INSPECTOR</text><text x="640" y="28" class="note-copy">Hides fully because it is contextual, with a persistent restore handle.</text>
      <text x="1130" y="28" class="eyebrow">INDEPENDENT</text><text x="1222" y="28" class="note-copy">Each side remembers its own state.</text>
    </g>
  </g>
</svg>
